<?xml version="1.0" encoding="UTF-8" standalone="no"?>
<!-- Created with Inkscape (http://www.inkscape.org/) -->

<svg
   xmlns:osb="http://www.openswatchbook.org/uri/2009/osb"
   xmlns:dc="http://purl.org/dc/elements/1.1/"
   xmlns:cc="http://creativecommons.org/ns#"
   xmlns:rdf="http://www.w3.org/1999/02/22-rdf-syntax-ns#"
   xmlns:svg="http://www.w3.org/2000/svg"
   xmlns="http://www.w3.org/2000/svg"
   xmlns:sodipodi="http://sodipodi.sourceforge.net/DTD/sodipodi-0.dtd"
   xmlns:inkscape="http://www.inkscape.org/namespaces/inkscape"
   width="200mm"
   height="100mm"
   viewBox="0 0 708.66142 354.3307"
   id="svg2"
   version="1.1"
   inkscape:version="0.91 r13725"
   sodipodi:docname="template.svg"
   inkscape:export-filename="\\s0177a\datashare\Social_Justice\Equalities\Equality Evidence Finder\template.png"
   inkscape:export-xdpi="145.10001"
   inkscape:export-ydpi="145.10001">
  <title
     id="title4264">Template</title>
  <defs
     id="defs4">
    <linearGradient
       id="linearGradient5139"
       osb:paint="solid">
      <stop
         style="stop-color:#ffffff;stop-opacity:1;"
         offset="0"
         id="stop5141" />
    </linearGradient>
    <linearGradient
       id="linearGradient5133"
       osb:paint="solid">
      <stop
         style="stop-color:#f9f9f9;stop-opacity:1;"
         offset="0"
         id="stop5135" />
    </linearGradient>
    <linearGradient
       id="linearGradient5127"
       osb:paint="solid">
      <stop
         style="stop-color:#f2f2f2;stop-opacity:1;"
         offset="0"
         id="stop5129" />
    </linearGradient>
    <linearGradient
       id="linearGradient5121"
       osb:paint="solid">
      <stop
         style="stop-color:#ececec;stop-opacity:1;"
         offset="0"
         id="stop5123" />
    </linearGradient>
    <linearGradient
       id="linearGradient5115"
       osb:paint="solid">
      <stop
         style="stop-color:#e6e6e6;stop-opacity:1;"
         offset="0"
         id="stop5117" />
    </linearGradient>
    <linearGradient
       id="linearGradient5109"
       osb:paint="solid">
      <stop
         style="stop-color:#cccccc;stop-opacity:1;"
         offset="0"
         id="stop5111" />
    </linearGradient>
    <linearGradient
       id="linearGradient5103"
       osb:paint="solid">
      <stop
         style="stop-color:#b3b3b3;stop-opacity:1;"
         offset="0"
         id="stop5105" />
    </linearGradient>
    <linearGradient
       id="linearGradient5097"
       osb:paint="solid">
      <stop
         style="stop-color:#999999;stop-opacity:1;"
         offset="0"
         id="stop5099" />
    </linearGradient>
    <linearGradient
       id="linearGradient5091"
       osb:paint="solid">
      <stop
         style="stop-color:#808080;stop-opacity:1;"
         offset="0"
         id="stop5093" />
    </linearGradient>
    <linearGradient
       id="linearGradient5085"
       osb:paint="solid">
      <stop
         style="stop-color:#666666;stop-opacity:1;"
         offset="0"
         id="stop5087" />
    </linearGradient>
    <linearGradient
       id="linearGradient5079"
       osb:paint="solid"
       gradientTransform="translate(-73.956645,-14.379807)">
      <stop
         style="stop-color:#4d4d4d;stop-opacity:1;"
         offset="0"
         id="stop5081" />
    </linearGradient>
    <linearGradient
       id="linearGradient5073"
       osb:paint="solid">
      <stop
         style="stop-color:#333333;stop-opacity:1;"
         offset="0"
         id="stop5075" />
    </linearGradient>
    <linearGradient
       id="linearGradient5067"
       osb:paint="solid"
       gradientTransform="translate(41.936616,-21.620182)">
      <stop
         style="stop-color:#1a1a1a;stop-opacity:1;"
         offset="0"
         id="stop5069" />
    </linearGradient>
    <linearGradient
       id="linearGradient5061"
       osb:paint="solid">
      <stop
         style="stop-color:#000000;stop-opacity:1;"
         offset="0"
         id="stop5063" />
    </linearGradient>
    <linearGradient
       id="linearGradient5027"
       osb:paint="solid">
      <stop
         style="stop-color:#ffa35c;stop-opacity:1;"
         offset="0"
         id="stop5029" />
    </linearGradient>
    <linearGradient
       id="linearGradient5017"
       osb:paint="solid">
      <stop
         style="stop-color:#ff8021;stop-opacity:1;"
         offset="0"
         id="stop5019" />
    </linearGradient>
    <linearGradient
       id="linearGradient5009"
       osb:paint="solid">
      <stop
         style="stop-color:#db5f00;stop-opacity:1;"
         offset="0"
         id="stop5011" />
    </linearGradient>
    <linearGradient
       id="linearGradient5001"
       osb:paint="solid">
      <stop
         style="stop-color:#a84900;stop-opacity:1;"
         offset="0"
         id="stop5003" />
    </linearGradient>
    <linearGradient
       id="linearGradient4993"
       osb:paint="solid">
      <stop
         style="stop-color:#b8e1ff;stop-opacity:1;"
         offset="0"
         id="stop4995" />
    </linearGradient>
    <linearGradient
       id="linearGradient4985"
       osb:paint="solid">
      <stop
         style="stop-color:#8fd0ff;stop-opacity:1;"
         offset="0"
         id="stop4987" />
    </linearGradient>
    <linearGradient
       id="linearGradient4977"
       osb:paint="solid">
      <stop
         style="stop-color:#6bc1ff;stop-opacity:1;"
         offset="0"
         id="stop4979" />
    </linearGradient>
    <linearGradient
       id="linearGradient4969"
       osb:paint="solid">
      <stop
         style="stop-color:#47b3ff;stop-opacity:1;"
         offset="0"
         id="stop4971" />
    </linearGradient>
    <linearGradient
       id="linearGradient4961"
       osb:paint="solid">
      <stop
         style="stop-color:#24a4ff;stop-opacity:1;"
         offset="0"
         id="stop4963" />
    </linearGradient>
    <linearGradient
       id="linearGradient4953"
       osb:paint="solid">
      <stop
         style="stop-color:#0095ff;stop-opacity:1;"
         offset="0"
         id="stop4955" />
    </linearGradient>
    <linearGradient
       id="linearGradient4945"
       osb:paint="solid">
      <stop
         style="stop-color:#0080db;stop-opacity:1;"
         offset="0"
         id="stop4947" />
    </linearGradient>
    <linearGradient
       id="linearGradient4937"
       osb:paint="solid">
      <stop
         style="stop-color:#0068b3;stop-opacity:1;"
         offset="0"
         id="stop4939" />
    </linearGradient>
    <linearGradient
       id="linearGradient4929"
       osb:paint="solid"
       gradientTransform="translate(-42,0)">
      <stop
         style="stop-color:#005999;stop-opacity:1;"
         offset="0"
         id="stop4931" />
    </linearGradient>
    <linearGradient
       id="linearGradient4921"
       osb:paint="solid">
      <stop
         style="stop-color:#004475;stop-opacity:1;"
         offset="0"
         id="stop4923" />
    </linearGradient>
    <linearGradient
       id="linearGradient4913"
       osb:paint="solid">
      <stop
         style="stop-color:#002d4d;stop-opacity:1;"
         offset="0"
         id="stop4915" />
    </linearGradient>
    <linearGradient
       id="linearGradient4907">
      <stop
         style="stop-color:#0068b3;stop-opacity:1;"
         offset="0"
         id="stop4909" />
    </linearGradient>
    <linearGradient
       id="linearGradient4899"
       osb:paint="solid">
      <stop
         style="stop-color:#924900;stop-opacity:1;"
         offset="0"
         id="stop4901" />
    </linearGradient>
    <linearGradient
       id="linearGradient4891"
       osb:paint="solid">
      <stop
         style="stop-color:#24ff24;stop-opacity:1;"
         offset="0"
         id="stop4893" />
    </linearGradient>
    <linearGradient
       id="linearGradient4883"
       osb:paint="solid">
      <stop
         style="stop-color:#b66dff;stop-opacity:1;"
         offset="0"
         id="stop4885" />
    </linearGradient>
    <linearGradient
       id="linearGradient4875"
       osb:paint="solid">
      <stop
         style="stop-color:#929292;stop-opacity:1;"
         offset="0"
         id="stop4877" />
    </linearGradient>
    <linearGradient
       id="linearGradient4867"
       osb:paint="solid">
      <stop
         style="stop-color:#6bc1ff;stop-opacity:1;"
         offset="0"
         id="stop4869" />
    </linearGradient>
    <linearGradient
       id="linearGradient4859"
       osb:paint="solid">
      <stop
         style="stop-color:#ff8021;stop-opacity:1;"
         offset="0"
         id="stop4861" />
    </linearGradient>
    <linearGradient
       id="linearGradient4851"
       osb:paint="solid">
      <stop
         style="stop-color:#004949;stop-opacity:1;"
         offset="0"
         id="stop4853" />
    </linearGradient>
    <linearGradient
       id="linearGradient4843"
       osb:paint="solid">
      <stop
         style="stop-color:#490092;stop-opacity:1;"
         offset="0"
         id="stop4845" />
    </linearGradient>
    <linearGradient
       id="linearGradient4835"
       osb:paint="solid">
      <stop
         style="stop-color:#920000;stop-opacity:1;"
         offset="0"
         id="stop4837" />
    </linearGradient>
    <linearGradient
       id="linearGradient4827"
       osb:paint="solid">
      <stop
         style="stop-color:#0068b3;stop-opacity:1;"
         offset="0"
         id="stop4829" />
    </linearGradient>
    <linearGradient
       id="linearGradient4797">
      <stop
         style="stop-color:#920000;stop-opacity:0;"
         offset="0"
         id="stop4799" />
    </linearGradient>
    <linearGradient
       id="linearGradient10169"
       gradientTransform="matrix(1.0821499,0,0,0.92408643,229.12839,680.31496)"
       x1="-81.479614"
       y1="54.284031"
       x2="157.70401"
       y2="54.284031"
       gradientUnits="userSpaceOnUse">
      <stop
         style="stop-color:#ad8ebc;stop-opacity:1;"
         offset="0"
         id="stop10171" />
    </linearGradient>
    <linearGradient
       id="linearGradient9022">
      <stop
         style="stop-color:#ff6600;stop-opacity:1;"
         offset="0"
         id="stop9024" />
    </linearGradient>
    <linearGradient
       id="linearGradient9016">
      <stop
         style="stop-color:#703989;stop-opacity:1;"
         offset="0"
         id="stop9018" />
    </linearGradient>
    <symbol
       id="ToiletsWomen">
      <title
         id="title3813">Toilets - Women</title>
      <g
         style="stroke:none"
         id="g3815">
        <circle
           cx="36"
           cy="10"
           r="5"
           id="circle3817" />
        <path
           d="m 35.5,64 a 2.5,2.5 0 0 1 -5,0 l 0,-17 -6.5,0 7,-23.5 -1,0 -4.1,13.4 a 2.1,2.1 0 0 1 -4,-1.2 L 26.5,20.5 A 6.5,6.5 0 0 1 33,16 l 6,0 a 6.5,6.5 0 0 1 6.5,4.5 l 4.6,15.2 a 2.1,2.1 0 0 1 -4,1.2 L 42,23.5 l -1,0 7,23.5 -6.5,0 0,17 a 2.5,2.5 0 0 1 -5,0 l 0,-17 -1,0 z"
           id="path3819"
           inkscape:connector-curvature="0" />
      </g>
    </symbol>
    <symbol
       id="ToiletsMen">
      <title
         id="title3793">Toilets - Men</title>
      <g
         style="stroke:none"
         id="g3795">
        <circle
           cx="36"
           cy="9"
           r="5"
           id="circle3797" />
        <path
           d="m 24,22 0,15.5 a 2.25,2.25 0 0 0 4.5,0 l 0,-14.5 1,0 0,39.5 a 3,3 0 0 0 6,0 l 0,-22.5 1,0 0,22.5 a 3,3 0 0 0 6,0 l 0,-39.5 1,0 0,14.5 a 2.25,2.25 0 0 0 4.5,0 L 48,22 a 7,7 0 0 0 -7,-7 l -10,0 a 7,7 0 0 0 -7,7 z"
           id="path3799"
           inkscape:connector-curvature="0" />
      </g>
    </symbol>
    <clipPath
       id="clipEmfPath1"
       clipPathUnits="userSpaceOnUse">
      <path
         inkscape:connector-curvature="0"
         id="path9320"
         d="m 24.0061,162.041 854.2169,0 0,335.085 -854.2169,0 z" />
    </clipPath>
    <pattern
       y="0"
       x="0"
       height="6"
       width="6"
       patternUnits="userSpaceOnUse"
       id="EMFhbasepattern" />
    <clipPath
       id="clipEmfPath1-8"
       clipPathUnits="userSpaceOnUse">
      <path
         inkscape:connector-curvature="0"
         id="path9895"
         d="m 24.0061,162.041 854.2169,0 0,335.085 -854.2169,0 z" />
    </clipPath>
    <pattern
       y="0"
       x="0"
       height="6"
       width="6"
       patternUnits="userSpaceOnUse"
       id="EMFhbasepattern-6" />
    <clipPath
       id="clipPath4884"
       clipPathUnits="userSpaceOnUse">
      <path
         inkscape:connector-curvature="0"
         id="path4886"
         d="m 373.445,352.442 263.282,0 0,65.744 -263.282,0 0,-65.744 z" />
    </clipPath>
    <clipPath
       id="clipPath4912"
       clipPathUnits="userSpaceOnUse">
      <path
         inkscape:connector-curvature="0"
         id="path4914"
         d="m 373.445,352.442 263.282,0 0,65.744 -263.282,0 0,-65.744 z" />
    </clipPath>
    <clipPath
       id="cpMHwzMTJ8MzYxLjV8MA==">
      <rect
         x="0"
         y="0"
         width="312"
         height="361.5"
         id="rect4202" />
    </clipPath>
    <clipPath
       id="clipPath5006">
      <rect
         x="0"
         y="0"
         width="312"
         height="361.5"
         id="rect5008" />
    </clipPath>
    <clipPath
       id="clipPath5010">
      <rect
         x="0"
         y="0"
         width="312"
         height="361.5"
         id="rect5012" />
    </clipPath>
    <clipPath
       id="clipPath5014">
      <rect
         x="0"
         y="0"
         width="312"
         height="361.5"
         id="rect5016" />
    </clipPath>
    <clipPath
       id="clipPath5018">
      <rect
         x="0"
         y="0"
         width="312"
         height="361.5"
         id="rect5020" />
    </clipPath>
    <clipPath
       id="clipPath5022">
      <rect
         x="0"
         y="0"
         width="312"
         height="361.5"
         id="rect5024" />
    </clipPath>
    <clipPath
       id="clipPath5026">
      <rect
         x="0"
         y="0"
         width="312"
         height="361.5"
         id="rect5028" />
    </clipPath>
    <clipPath
       id="clipPath5030">
      <rect
         x="0"
         y="0"
         width="312"
         height="361.5"
         id="rect5032" />
    </clipPath>
    <clipPath
       id="clipPath5034">
      <rect
         x="0"
         y="0"
         width="312"
         height="361.5"
         id="rect5036" />
    </clipPath>
    <clipPath
       id="clipPath5038">
      <rect
         x="0"
         y="0"
         width="312"
         height="361.5"
         id="rect5040" />
    </clipPath>
    <clipPath
       id="clipPath5042">
      <rect
         x="0"
         y="0"
         width="312"
         height="361.5"
         id="rect5044" />
    </clipPath>
    <clipPath
       id="clipPath5046">
      <rect
         x="0"
         y="0"
         width="312"
         height="361.5"
         id="rect5048" />
    </clipPath>
    <clipPath
       id="cpMzguOTIyMXwzMDYuNTIxfDMzMS4xNTZ8NS40Nzk0NQ==">
      <rect
         x="38.919998"
         y="5.48"
         width="267.60001"
         height="325.67999"
         id="rect4149" />
    </clipPath>
    <clipPath
       id="clipPath5052">
      <rect
         x="38.919998"
         y="5.48"
         width="267.60001"
         height="325.67999"
         id="rect5054" />
    </clipPath>
    <clipPath
       id="clipPath5056">
      <rect
         x="38.919998"
         y="5.48"
         width="267.60001"
         height="325.67999"
         id="rect5058" />
    </clipPath>
    <clipPath
       id="clipPath5060">
      <rect
         x="38.919998"
         y="5.48"
         width="267.60001"
         height="325.67999"
         id="rect5062" />
    </clipPath>
    <clipPath
       id="clipPath5064">
      <rect
         x="38.919998"
         y="5.48"
         width="267.60001"
         height="325.67999"
         id="rect5066" />
    </clipPath>
    <clipPath
       id="clipPath5068">
      <rect
         x="38.919998"
         y="5.48"
         width="267.60001"
         height="325.67999"
         id="rect5070" />
    </clipPath>
    <clipPath
       id="clipPath5072">
      <rect
         x="38.919998"
         y="5.48"
         width="267.60001"
         height="325.67999"
         id="rect5074" />
    </clipPath>
    <clipPath
       id="clipPath5076">
      <rect
         x="38.919998"
         y="5.48"
         width="267.60001"
         height="325.67999"
         id="rect5078" />
    </clipPath>
  </defs>
  <sodipodi:namedview
     id="base"
     pagecolor="#ffffff"
     bordercolor="#666666"
     borderopacity="1.0"
     inkscape:pageopacity="0.0"
     inkscape:pageshadow="2"
     inkscape:zoom="0.68682329"
     inkscape:cx="114.1369"
     inkscape:cy="39.321733"
     inkscape:document-units="mm"
     inkscape:current-layer="layer1"
     showgrid="false"
     inkscape:showpageshadow="false"
     borderlayer="true"
     inkscape:window-width="1920"
     inkscape:window-height="1017"
     inkscape:window-x="1358"
     inkscape:window-y="-8"
     inkscape:window-maximized="1"
     showborder="true" />
  <metadata
     id="metadata7">
    <rdf:RDF>
      <cc:Work
         rdf:about="">
        <dc:format>image/svg+xml</dc:format>
        <dc:type
           rdf:resource="http://purl.org/dc/dcmitype/StillImage" />
        <dc:title>Template</dc:title>
      </cc:Work>
    </rdf:RDF>
  </metadata>
  <g
     inkscape:label="Background"
     inkscape:groupmode="layer"
     id="layer1"
     transform="translate(0,-698.0315)"
     style="display:inline"
     sodipodi:insensitive="true">
    <rect
       style="fill:#ffffff;fill-opacity:1"
       id="rect4223"
       width="708.44025"
       height="292.65228"
       x="0"
       y="707.05402" />
    <rect
       style="fill:#0068b3;fill-opacity:1;stroke:none;stroke-width:1;stroke-linecap:round;stroke-linejoin:round;stroke-miterlimit:10;stroke-dasharray:none;stroke-dashoffset:0;stroke-opacity:1"
       id="rect4138"
       width="709.60516"
       height="70.866142"
       x="2.8835507e-006"
       y="981.49603" />
    <rect
       y="698.03259"
       x="2.8835507e-006"
       height="22.984308"
       width="709.09039"
       id="rect4134"
       style="fill:#0068b3;fill-opacity:1;stroke:none;stroke-width:1;stroke-linecap:round;stroke-linejoin:round;stroke-miterlimit:10;stroke-dasharray:none;stroke-dashoffset:0;stroke-opacity:1" />
    <text
       xml:space="preserve"
       style="font-style:normal;font-weight:normal;font-size:40px;line-height:125%;font-family:sans-serif;letter-spacing:0px;word-spacing:0px;fill:#000000;fill-opacity:1;stroke:none;stroke-width:1px;stroke-linecap:butt;stroke-linejoin:miter;stroke-opacity:1"
       x="48.510677"
       y="1022.5095"
       id="text4156"
       sodipodi:linespacing="125%"><tspan
         sodipodi:role="line"
         id="tspan4158"
         x="48.510677"
         y="1022.5095" /></text>
    <flowRoot
       xml:space="preserve"
       id="flowRoot4252"
       style="font-style:normal;font-weight:normal;font-size:40px;line-height:125%;font-family:sans-serif;letter-spacing:0px;word-spacing:0px;fill:#000000;fill-opacity:1;stroke:none;stroke-width:1px;stroke-linecap:butt;stroke-linejoin:miter;stroke-opacity:1"
       transform="translate(0,680.31496)"><flowRegion
         id="flowRegion4254"><rect
           id="rect4256"
           width="215.38069"
           height="44.680038"
           x="195.90479"
           y="318.20206" /></flowRegion><flowPara
         id="flowPara4258">sc</flowPara></flowRoot>    <text
       xml:space="preserve"
       style="font-style:normal;font-weight:normal;font-size:40px;line-height:125%;font-family:sans-serif;letter-spacing:0px;word-spacing:0px;fill:#000000;fill-opacity:1;stroke:none;stroke-width:1px;stroke-linecap:butt;stroke-linejoin:miter;stroke-opacity:1"
       x="21.992403"
       y="1023.8444"
       id="text4260"
       sodipodi:linespacing="125%"><tspan
         sodipodi:role="line"
         id="tspan4262"
         x="21.992403"
         y="1023.8444"
         style="font-weight:normal;font-size:25px;fill:#ffffff">www.data.gov.scot/genderindex</tspan></text>
    <g
       transform="matrix(0.51280361,0,0,0.51280361,492.29401,976.8912)"
       id="g5648">
      <g
         style="fill:#ffffff;stroke:#ffffff;stroke-opacity:1"
         transform="matrix(1.25,0,0,-1.25,-417.07181,559.71918)"
         id="g4880">
        <g
           style="fill:#ffffff;stroke:#ffffff;stroke-opacity:1"
           clip-path="url(#clipPath4884)"
           id="g4882">
          <g
             style="fill:#ffffff;stroke:#ffffff;stroke-opacity:1"
             transform="translate(487.6982,357.4895)"
             id="g4888">
            <path
               inkscape:connector-curvature="0"
               id="path4890"
               style="fill:#ffffff;stroke:#ffffff;stroke-width:1.74000001;stroke-linecap:butt;stroke-linejoin:miter;stroke-miterlimit:4;stroke-dasharray:none;stroke-opacity:1"
               d="M 0,0 0,60.697" />
          </g>
        </g>
      </g>
      <g
         style="fill:#ffffff"
         transform="matrix(1.25,0,0,-1.25,64.782586,36.986778)"
         id="g4892">
        <path
           inkscape:connector-curvature="0"
           id="path4894"
           style="fill:#ffffff;fill-opacity:1;fill-rule:nonzero;stroke:none"
           d="M 0,0 38.827,-22.748 77.655,0 0,0 Z" />
      </g>
      <g
         style="fill:#ffffff"
         transform="matrix(1.25,0,0,-1.25,64.782486,112.85728)"
         id="g4896">
        <path
           inkscape:connector-curvature="0"
           id="path4898"
           style="fill:#ffffff;fill-opacity:1;fill-rule:nonzero;stroke:none"
           d="M 0,0 38.827,22.749 77.654,0 0,0 Z" />
      </g>
      <g
         style="fill:#ffffff"
         transform="matrix(1.25,0,0,-1.25,49.734586,104.26748)"
         id="g4900">
        <path
           inkscape:connector-curvature="0"
           id="path4902"
           style="fill:#ffffff;fill-opacity:1;fill-rule:nonzero;stroke:none"
           d="M 0,0 38.603,23.462 0,46.924 0,0 Z" />
      </g>
      <g
         style="fill:#ffffff"
         transform="matrix(1.25,0,0,-1.25,177.54609,45.612178)"
         id="g4904">
        <path
           inkscape:connector-curvature="0"
           id="path4906"
           style="fill:#ffffff;fill-opacity:1;fill-rule:nonzero;stroke:none"
           d="M 0,0 0,-46.924 -38.603,-23.462 0,0 Z" />
      </g>
      <g
         style="fill:#ffffff"
         transform="matrix(1.25,0,0,-1.25,-417.07181,559.71918)"
         id="g4908">
        <g
           style="fill:#ffffff"
           clip-path="url(#clipPath4912)"
           id="g4910">
          <g
             style="fill:#ffffff"
             transform="translate(634.2432,377.3631)"
             id="g4916">
            <path
               inkscape:connector-curvature="0"
               id="path4918"
               style="fill:#ffffff;fill-opacity:1;fill-rule:nonzero;stroke:none"
               d="M 0,0 C 1.216,0 2.003,0.356 2.485,0.786 L 1.851,2.815 C 1.648,2.587 1.192,2.359 0.684,2.359 c -0.761,0 -1.166,0.633 -1.166,1.47 l 0,6.416 2.485,0 0,2.308 -2.485,0 0,3.347 -2.662,0 0,-3.347 -2.029,0 0,-2.308 2.029,0 0,-7.075 C -3.144,1.115 -2.079,0 0,0 m -7.033,0.304 0,8.622 c 0,2.51 -1.319,3.931 -3.957,3.931 -1.926,0 -3.525,-0.989 -4.336,-1.953 l 0,1.649 -2.662,0 0,-12.249 2.662,0 0,8.572 c 0.633,0.811 1.801,1.622 3.144,1.622 1.497,0 2.485,-0.608 2.485,-2.535 l 0,-7.659 2.664,0 z m -16.05,7.152 -6.897,0 c 0.101,1.47 1.167,3.22 3.422,3.22 2.41,0 3.399,-1.775 3.475,-3.22 M -26.328,0 c 1.926,0 3.727,0.634 4.97,1.8 l -1.217,1.751 c -0.889,-0.888 -2.283,-1.37 -3.501,-1.37 -2.307,0 -3.676,1.546 -3.878,3.373 l 9.432,0 0,0.659 c 0,3.855 -2.333,6.644 -6.008,6.644 -3.628,0 -6.215,-2.866 -6.215,-6.417 0,-3.878 2.714,-6.44 6.417,-6.44 m -9.013,0.304 0,8.851 c 0,2.485 -1.293,3.702 -3.524,3.702 -1.851,0 -3.474,-1.142 -4.158,-2.232 -0.407,1.32 -1.523,2.232 -3.348,2.232 -1.876,0 -3.473,-1.217 -4.005,-1.953 l 0,1.649 -2.664,0 0,-12.249 2.664,0 0,8.572 c 0.556,0.786 1.647,1.622 2.839,1.622 1.446,0 2.003,-0.887 2.003,-2.206 l 0,-7.988 2.662,0 0,8.572 c 0.533,0.811 1.648,1.622 2.84,1.622 1.446,0 2.03,-0.887 2.03,-2.206 l 0,-7.988 2.661,0 z m -20.993,0 0,8.622 c 0,2.51 -1.317,3.931 -3.955,3.931 -1.928,0 -3.525,-0.989 -4.336,-1.953 l 0,1.649 -2.662,0 0,-12.249 2.662,0 0,8.572 c 0.633,0.811 1.801,1.622 3.144,1.622 1.496,0 2.485,-0.608 2.485,-2.535 l 0,-7.659 2.662,0 z m -16.91,0 0,8.344 c 0.533,0.886 2.029,1.648 3.169,1.648 0.331,0 0.583,-0.026 0.813,-0.077 l 0,2.638 c -1.573,0 -3.044,-0.912 -3.982,-2.079 l 0,1.775 -2.663,0 0,-12.249 2.663,0 z M -81,7.456 l -6.898,0 c 0.102,1.47 1.168,3.22 3.423,3.22 2.41,0 3.398,-1.775 3.475,-3.22 M -84.246,0 c 1.927,0 3.728,0.634 4.97,1.8 l -1.218,1.751 c -0.888,-0.888 -2.281,-1.37 -3.499,-1.37 -2.307,0 -3.677,1.546 -3.88,3.373 l 9.434,0 0,0.659 c 0,3.855 -2.333,6.644 -6.01,6.644 -3.627,0 -6.213,-2.866 -6.213,-6.417 0,-3.878 2.714,-6.44 6.416,-6.44 m -11.923,0.304 4.995,12.249 -2.84,0 -3.575,-9.18 -3.575,9.18 -2.866,0 4.995,-12.249 2.866,0 z m -14.674,2.055 c -2.257,0 -3.525,1.902 -3.525,4.081 0,2.156 1.268,4.058 3.525,4.058 2.281,0 3.525,-1.902 3.525,-4.058 0,-2.179 -1.244,-4.081 -3.525,-4.081 m 0,-2.359 c 3.905,0 6.288,2.941 6.288,6.44 0,3.526 -2.383,6.417 -6.288,6.417 -3.906,0 -6.288,-2.891 -6.288,-6.417 0,-3.499 2.382,-6.44 6.288,-6.44 m -16.176,-0.025 c 5.326,0 8.419,3.702 8.419,9.433 l -9.23,0 0,-2.612 6.01,0 c -0.482,-2.231 -2.079,-4.159 -4.945,-4.159 -3.346,0 -5.832,2.586 -5.832,6.112 0,3.575 2.486,6.111 5.832,6.111 1.877,0 3.474,-0.989 4.387,-2.257 l 2.409,1.395 c -1.344,1.927 -3.5,3.499 -6.796,3.499 -4.919,0 -8.875,-3.423 -8.875,-8.748 0,-5.3 3.956,-8.774 8.621,-8.774 m 79.327,22.87 0,8.673 c 0,2.51 -1.317,3.88 -3.955,3.88 -1.928,0 -3.499,-0.989 -4.311,-1.953 l 0,6.314 -2.663,0 0,-16.914 2.663,0 0,8.571 c 0.61,0.812 1.774,1.623 3.146,1.623 1.494,0 2.46,-0.557 2.46,-2.485 l 0,-7.709 2.66,0 z m -18.583,-0.304 c 3.296,0 5.097,1.649 5.097,3.828 0,4.87 -7.404,3.247 -7.404,5.402 0,0.862 0.861,1.522 2.257,1.522 1.547,0 2.89,-0.66 3.626,-1.471 l 1.115,1.877 c -1.091,0.963 -2.662,1.699 -4.741,1.699 -3.094,0 -4.82,-1.699 -4.82,-3.702 0,-4.718 7.405,-2.993 7.405,-5.402 0,-0.964 -0.837,-1.624 -2.434,-1.624 -1.571,0 -3.269,0.812 -4.132,1.699 l -1.218,-1.902 c 1.268,-1.242 3.144,-1.926 5.249,-1.926 m -7.562,12.553 -2.662,0 0,-12.249 2.662,0 0,12.249 z m -1.317,1.496 c 0.912,0 1.646,0.735 1.646,1.647 0,0.913 -0.734,1.649 -1.646,1.649 -0.914,0 -1.65,-0.736 -1.65,-1.649 0,-0.912 0.736,-1.647 1.65,-1.647 m -5.681,-14.049 c 1.216,0 2.003,0.355 2.485,0.786 l -0.634,2.028 c -0.202,-0.228 -0.659,-0.455 -1.166,-0.455 -0.762,0 -1.167,0.633 -1.167,1.469 l 0,6.417 2.485,0 0,2.308 -2.485,0 0,3.346 -2.662,0 0,-3.346 -2.029,0 0,-2.308 2.029,0 0,-7.075 c 0,-2.055 1.065,-3.17 3.144,-3.17 m -8.538,0 c 1.218,0 2.003,0.355 2.485,0.786 l -0.633,2.028 c -0.203,-0.228 -0.66,-0.455 -1.167,-0.455 -0.76,0 -1.166,0.633 -1.166,1.469 l 0,6.417 2.484,0 0,2.308 -2.484,0 0,3.346 -2.662,0 0,-3.346 -2.029,0 0,-2.308 2.029,0 0,-7.075 c 0,-2.055 1.065,-3.17 3.143,-3.17 m -12.561,2.359 c -2.257,0 -3.525,1.901 -3.525,4.081 0,2.156 1.268,4.058 3.525,4.058 2.283,0 3.525,-1.902 3.525,-4.058 0,-2.18 -1.242,-4.081 -3.525,-4.081 m 0,-2.359 c 3.905,0 6.289,2.941 6.289,6.44 0,3.526 -2.384,6.417 -6.289,6.417 -3.904,0 -6.288,-2.891 -6.288,-6.417 0,-3.499 2.384,-6.44 6.288,-6.44 m -12.166,0 c 2.409,0 3.829,1.039 4.691,2.181 l -1.75,1.647 c -0.685,-0.962 -1.623,-1.469 -2.814,-1.469 -2.206,0 -3.702,1.699 -3.702,4.081 0,2.384 1.496,4.058 3.702,4.058 1.191,0 2.129,-0.456 2.814,-1.42 l 1.75,1.598 c -0.862,1.167 -2.282,2.181 -4.691,2.181 -3.702,0 -6.314,-2.713 -6.314,-6.417 0,-3.702 2.612,-6.44 6.314,-6.44 m -14.738,0 c 4.539,0 6.542,2.434 6.542,5.249 0,6.289 -9.838,4.336 -9.838,7.506 0,1.242 1.116,2.105 2.84,2.105 1.775,0 3.575,-0.608 4.919,-1.953 l 1.674,2.206 c -1.547,1.523 -3.703,2.384 -6.314,2.384 -3.728,0 -6.162,-2.155 -6.162,-4.971 0,-6.212 9.839,-4.006 9.839,-7.556 0,-1.142 -0.939,-2.334 -3.373,-2.334 -2.358,0 -4.209,1.117 -5.35,2.359 l -1.674,-2.307 c 1.522,-1.573 3.778,-2.688 6.897,-2.688" />
          </g>
          <g
             style="fill:#ffffff"
             transform="translate(587.2162,357.0623)"
             id="g4920">
            <path
               inkscape:connector-curvature="0"
               id="path4922"
               style="fill:#ffffff;fill-opacity:1;fill-rule:nonzero;stroke:none"
               d="M 0,0 C 1.206,0 1.984,0.351 2.46,0.778 L 1.832,2.787 C 1.632,2.561 1.18,2.335 0.677,2.335 c -0.752,0 -1.154,0.628 -1.154,1.456 l 0,6.353 2.461,0 0,2.285 -2.461,0 0,3.315 -2.638,0 0,-3.315 -2.008,0 0,-2.285 2.008,0 0,-7.005 C -3.115,1.105 -2.06,0 0,0 m -12.439,2.335 c -2.234,0 -3.489,1.883 -3.489,4.043 0,2.134 1.255,4.017 3.489,4.017 2.26,0 3.49,-1.883 3.49,-4.017 0,-2.16 -1.23,-4.043 -3.49,-4.043 m 0,-2.335 c 3.866,0 6.227,2.913 6.227,6.378 0,3.49 -2.361,6.353 -6.227,6.353 -3.867,0 -6.226,-2.863 -6.226,-6.353 0,-3.465 2.359,-6.378 6.226,-6.378 m -12.046,0 c 2.385,0 3.791,1.029 4.644,2.159 l -1.732,1.632 c -0.678,-0.954 -1.606,-1.456 -2.787,-1.456 -2.184,0 -3.666,1.682 -3.666,4.043 0,2.36 1.482,4.017 3.666,4.017 1.181,0 2.109,-0.452 2.787,-1.406 l 1.732,1.582 c -0.853,1.155 -2.259,2.16 -4.644,2.16 -3.666,0 -6.252,-2.687 -6.252,-6.353 0,-3.666 2.586,-6.378 6.252,-6.378 m -13.054,0 c 3.264,0 5.046,1.632 5.046,3.791 0,4.821 -7.33,3.214 -7.33,5.349 0,0.853 0.854,1.506 2.236,1.506 1.529,0 2.86,-0.653 3.589,-1.456 l 1.103,1.858 c -1.079,0.954 -2.634,1.683 -4.692,1.683 -3.065,0 -4.772,-1.683 -4.772,-3.667 0,-4.67 7.331,-2.963 7.331,-5.348 0,-0.954 -0.828,-1.607 -2.41,-1.607 -1.557,0 -3.239,0.804 -4.092,1.682 L -42.737,1.908 C -41.481,0.678 -39.622,0 -37.539,0 m -9.159,0.025 c 0.955,0 1.757,0.829 1.757,1.783 0,0.929 -0.802,1.732 -1.757,1.732 -0.953,0 -1.758,-0.803 -1.758,-1.732 0,-0.954 0.805,-1.783 1.758,-1.783 m -6.693,0.276 4.946,12.128 -2.812,0 -3.54,-9.09 -3.542,9.09 -2.836,0 4.946,-12.128 2.838,0 z m -14.53,2.034 c -2.235,0 -3.491,1.883 -3.491,4.043 0,2.134 1.256,4.017 3.491,4.017 2.26,0 3.489,-1.883 3.489,-4.017 0,-2.16 -1.229,-4.043 -3.489,-4.043 m 0,-2.335 c 3.867,0 6.226,2.913 6.226,6.378 0,3.49 -2.359,6.353 -6.226,6.353 -3.867,0 -6.228,-2.863 -6.228,-6.353 0,-3.465 2.361,-6.378 6.228,-6.378 m -14.566,2.636 c -2.109,0 -3.44,1.532 -3.44,3.867 0,2.336 1.331,3.892 3.44,3.892 1.231,0 2.511,-0.728 3.115,-1.607 l 0,-4.545 c -0.604,-0.879 -1.884,-1.607 -3.115,-1.607 m -0.476,-7.256 c 2.963,0 6.226,1.18 6.226,5.549 l 0,11.5 -2.635,0 0,-1.682 c -0.98,1.305 -2.361,1.984 -3.893,1.984 -3.138,0 -5.373,-2.286 -5.373,-6.228 0,-3.992 2.284,-6.227 5.373,-6.227 1.582,0 2.962,0.804 3.893,2.034 l 0,-1.381 c 0,-2.586 -1.859,-3.39 -3.591,-3.39 -1.607,0 -2.863,0.427 -3.866,1.557 l -1.232,-1.908 c 1.508,-1.356 3.038,-1.808 5.098,-1.808" />
          </g>
        </g>
      </g>
    </g>
  </g>
  <g
     inkscape:groupmode="layer"
     id="layer2"
     inkscape:label="Content"
     transform="translate(0,-17.716539)" />
  <style
     id="style3"
     type="text/css">
	.st0{fill:#0068B3;}
	.st1{enable-background:new    ;}
</style>
  <style
     id="style4765"
     type="text/css">
	.st0{fill:none;stroke:#ffffff;stroke-width:1.46;}
	.st1{fill:#ffffff;}
	.st2{fill:#ffffff;}
	.st3{fill:#ffffff;}
</style>
</svg>
